<svg width="22" height="23" viewBox="0 0 22 23" fill="none" xmlns="http://www.w3.org/2000/svg">
<path d="M11 21.75C12.3135 21.7517 13.6143 21.4938 14.8278 20.9912C16.0413 20.4885 17.1435 19.751 18.071 18.821C19.001 17.8935 19.7385 16.7913 20.2412 15.5778C20.7438 14.3643 21.0017 13.0635 21 11.75C21.0017 10.4365 20.7438 9.1357 20.2411 7.92222C19.7385 6.70874 19.001 5.60656 18.071 4.67901C17.1435 3.74902 16.0413 3.01151 14.8278 2.50885C13.6143 2.00619 12.3135 1.74831 11 1.75001C9.68654 1.74833 8.3857 2.00623 7.17222 2.50889C5.95874 3.01154 4.85656 3.74904 3.92901 4.67901C2.99904 5.60656 2.26154 6.70874 1.75889 7.92222C1.25623 9.1357 0.998334 10.4365 1.00001 11.75C0.998307 13.0635 1.25619 14.3643 1.75885 15.5778C2.26151 16.7913 2.99902 17.8935 3.92901 18.821C4.85656 19.751 5.95874 20.4885 7.17222 20.9911C8.3857 21.4938 9.68654 21.7517 11 21.75V21.75Z" stroke="#06F7A1" stroke-width="2" stroke-linejoin="round"/>
<path d="M7 11.75L10 14.75L16 8.75" stroke="#06F7A1" stroke-width="2" stroke-linecap="round" stroke-linejoin="round"/>
</svg>
