<svg width="292" height="15" viewBox="0 0 292 15" fill="none" xmlns="http://www.w3.org/2000/svg">
<path fill-rule="evenodd" clip-rule="evenodd" d="M288.354 7.75C286.422 7.75 284.856 6.18499 284.854 4.25369L284.854 4.75L231.061 4.75L228.707 7.10356L228 6.39645L230.5 3.89645L230.646 3.75L230.854 3.75L284.854 3.75L284.854 4.2463C284.856 2.31501 286.422 0.75 288.354 0.75C290.287 0.75 291.854 2.317 291.854 4.25C291.854 6.18299 290.287 7.74999 288.354 7.75Z" fill="#93ADC1"/>
<path d="M224 11.1184L221.493 13.75L167.351 13.75L164.844 11.1184L123.235 11.1184M114.211 13.75L108.697 7.96053L4.0079 7.96052M4.0079 12.171L0.999985 12.171L0.999986 3.75L4.0079 3.75" stroke="#93ADC1"/>
<path d="M112.5 7.65137L115.5 10.6514" stroke="#93ADC1"/>
<path d="M233 6.75L226 13.75" stroke="#93ADC1"/>
<path d="M238 6.75L231 13.75" stroke="#93ADC1"/>
<path d="M243 6.75L236 13.75" stroke="#93ADC1"/>
<path d="M248 6.75L241 13.75" stroke="#93ADC1"/>
<path d="M253 6.75L246 13.75" stroke="#93ADC1"/>
<path d="M258 6.75L251 13.75" stroke="#93ADC1"/>
<path d="M263 6.75L256 13.75" stroke="#93ADC1"/>
<path d="M268 6.75L261 13.75" stroke="#93ADC1"/>
<path d="M273 6.75L266 13.75" stroke="#93ADC1"/>
<path d="M278 6.75L271 13.75" stroke="#93ADC1"/>
</svg>
