<svg width="356" height="357" viewBox="0 0 356 357" fill="none" xmlns="http://www.w3.org/2000/svg">
<circle cx="178" cy="178.751" r="176" stroke="#0C3D59" stroke-width="4"/>
<path d="M88.9999 24.5982C61.9405 40.2209 39.4702 62.6912 23.8475 89.7506L35.9947 96.7638C50.3864 71.8367 71.086 51.1371 96.0131 36.7454L88.9999 24.5982Z" fill="#0C3D59"/>
<path d="M82.1938 34.7014C63.0852 47.4104 46.6962 63.7943 33.9811 82.8989L37.1449 85.0045C49.5806 66.3196 65.6096 50.2957 84.2985 37.8659L82.1938 34.7014Z" fill="#18FEFE"/>
<path d="M267 332.903C294.059 317.28 316.529 294.81 332.152 267.75L320.005 260.737C305.613 285.664 284.914 306.364 259.987 320.756L267 332.903Z" fill="#0C3D59"/>
<path d="M273.806 322.8C292.914 310.091 309.303 293.707 322.019 274.602L318.855 272.497C306.419 291.182 290.39 307.206 271.701 319.635L273.806 322.8Z" fill="#18FEFE"/>
</svg>
