<svg width="128" height="129" viewBox="0 0 128 129" fill="none" xmlns="http://www.w3.org/2000/svg">
<path d="M112 96.2499V69.5833" stroke="#06F7A1" stroke-width="4" stroke-linecap="round" stroke-linejoin="round"/>
<path d="M16 96.2499V69.5833" stroke="#06F7A1" stroke-width="4" stroke-linecap="round" stroke-linejoin="round"/>
<path d="M89.3869 39.0257C90.1831 38.2601 90.2079 36.994 89.4423 36.1978C88.6767 35.4016 87.4106 35.3767 86.6144 36.1423L60.2673 61.4761L46.7202 48.4501C45.924 47.6845 44.6579 47.7093 43.8923 48.5055C43.1267 49.3017 43.1516 50.5678 43.9478 51.3334L58.8811 65.6923C59.6553 66.4368 60.8793 66.4368 61.6535 65.6923L89.3869 39.0257Z" fill="#06F7A1"/>
<path fill-rule="evenodd" clip-rule="evenodd" d="M14 104.25C14 109.773 18.4772 114.25 24 114.25H104C109.523 114.25 114 109.773 114 104.25V24.25C114 18.7272 109.523 14.25 104 14.25H24C18.4772 14.25 14 18.7272 14 24.25V104.25ZM24 18.25C20.6863 18.25 18 20.9363 18 24.25V81.25H41.5C42.2575 81.25 42.9501 81.678 43.2889 82.3556L47.7361 91.25H80.2639L84.7111 82.3556C85.0499 81.678 85.7425 81.25 86.5 81.25H110V24.25C110 20.9363 107.314 18.25 104 18.25H24ZM110 104.25V85.25H87.7361L83.2889 94.1444C82.9501 94.822 82.2575 95.25 81.5 95.25H46.5C45.7425 95.25 45.0499 94.822 44.7111 94.1444L40.2639 85.25H18V104.25C18 107.564 20.6863 110.25 24 110.25H104C107.314 110.25 110 107.564 110 104.25Z" fill="#06F7A1"/>
</svg>
